<mxfile host="app.diagrams.net" agent="Mozilla/5.0 (Macintosh; Intel Mac OS X 10_15_7) AppleWebKit/537.36 (KHTML, like Gecko) Chrome/135.0.0.0 Safari/537.36 Edg/135.0.0.0" version="26.2.14">
  <diagram name="第 1 页" id="XGOj7FC6R4Cg6SrgQ4Zg">
    <mxGraphModel dx="1291" dy="844" grid="1" gridSize="10" guides="1" tooltips="1" connect="1" arrows="1" fold="1" page="1" pageScale="1" pageWidth="827" pageHeight="1169" math="1" shadow="0">
      <root>
        <mxCell id="0" />
        <mxCell id="1" parent="0" />
        <mxCell id="aCUTBaR-w6iTaP7NlPZ--4" style="edgeStyle=orthogonalEdgeStyle;rounded=0;orthogonalLoop=1;jettySize=auto;html=1;exitX=1;exitY=0.5;exitDx=0;exitDy=0;endArrow=none;startFill=0;" edge="1" parent="1" source="aCUTBaR-w6iTaP7NlPZ--1" target="aCUTBaR-w6iTaP7NlPZ--3">
          <mxGeometry relative="1" as="geometry" />
        </mxCell>
        <mxCell id="aCUTBaR-w6iTaP7NlPZ--1" value="&lt;div&gt;&lt;font face=&quot;Linux Libertine O&quot;&gt;&lt;br&gt;&lt;/font&gt;&lt;/div&gt;" style="ellipse;whiteSpace=wrap;html=1;aspect=fixed;fontFamily=Libertine;fillColor=light-dark(#edefaf, #ededed);" vertex="1" parent="1">
          <mxGeometry x="106" y="210" width="20" height="20" as="geometry" />
        </mxCell>
        <mxCell id="aCUTBaR-w6iTaP7NlPZ--3" value="&lt;div&gt;&lt;font face=&quot;Linux Libertine O&quot;&gt;&lt;br&gt;&lt;/font&gt;&lt;/div&gt;" style="ellipse;whiteSpace=wrap;html=1;aspect=fixed;fontFamily=Libertine;fillColor=light-dark(#edefaf, #ededed);" vertex="1" parent="1">
          <mxGeometry x="166" y="210" width="20" height="20" as="geometry" />
        </mxCell>
        <mxCell id="aCUTBaR-w6iTaP7NlPZ--19" style="edgeStyle=orthogonalEdgeStyle;rounded=0;orthogonalLoop=1;jettySize=auto;html=1;exitX=1;exitY=0.5;exitDx=0;exitDy=0;endArrow=none;startFill=0;" edge="1" parent="1" source="aCUTBaR-w6iTaP7NlPZ--20" target="aCUTBaR-w6iTaP7NlPZ--21">
          <mxGeometry relative="1" as="geometry" />
        </mxCell>
        <mxCell id="aCUTBaR-w6iTaP7NlPZ--20" value="&lt;div&gt;&lt;font face=&quot;Linux Libertine O&quot;&gt;&lt;br&gt;&lt;/font&gt;&lt;/div&gt;" style="ellipse;whiteSpace=wrap;html=1;aspect=fixed;fontFamily=Libertine;fillColor=light-dark(#edefaf, #ededed);" vertex="1" parent="1">
          <mxGeometry x="299" y="210" width="20" height="20" as="geometry" />
        </mxCell>
        <mxCell id="aCUTBaR-w6iTaP7NlPZ--25" style="edgeStyle=orthogonalEdgeStyle;rounded=0;orthogonalLoop=1;jettySize=auto;html=1;exitX=1;exitY=0.5;exitDx=0;exitDy=0;entryX=0;entryY=0.5;entryDx=0;entryDy=0;endArrow=none;startFill=0;" edge="1" parent="1" source="aCUTBaR-w6iTaP7NlPZ--21" target="aCUTBaR-w6iTaP7NlPZ--22">
          <mxGeometry relative="1" as="geometry" />
        </mxCell>
        <mxCell id="aCUTBaR-w6iTaP7NlPZ--21" value="&lt;div&gt;&lt;font face=&quot;Linux Libertine O&quot;&gt;&lt;br&gt;&lt;/font&gt;&lt;/div&gt;" style="ellipse;whiteSpace=wrap;html=1;aspect=fixed;fontFamily=Libertine;fillColor=light-dark(#edefaf, #ededed);" vertex="1" parent="1">
          <mxGeometry x="359" y="210" width="20" height="20" as="geometry" />
        </mxCell>
        <mxCell id="aCUTBaR-w6iTaP7NlPZ--22" value="&lt;div&gt;&lt;font face=&quot;Linux Libertine O&quot;&gt;&lt;br&gt;&lt;/font&gt;&lt;/div&gt;" style="ellipse;whiteSpace=wrap;html=1;aspect=fixed;fontFamily=Libertine;fillColor=light-dark(#f7b7d4, #ededed);" vertex="1" parent="1">
          <mxGeometry x="399" y="210" width="20" height="20" as="geometry" />
        </mxCell>
        <mxCell id="aCUTBaR-w6iTaP7NlPZ--24" style="edgeStyle=orthogonalEdgeStyle;rounded=0;orthogonalLoop=1;jettySize=auto;html=1;exitX=1;exitY=0.5;exitDx=0;exitDy=0;entryX=0;entryY=0.5;entryDx=0;entryDy=0;endArrow=none;startFill=0;" edge="1" parent="1" source="aCUTBaR-w6iTaP7NlPZ--23" target="aCUTBaR-w6iTaP7NlPZ--20">
          <mxGeometry relative="1" as="geometry" />
        </mxCell>
        <mxCell id="aCUTBaR-w6iTaP7NlPZ--23" value="&lt;div&gt;&lt;font face=&quot;Linux Libertine O&quot;&gt;&lt;br&gt;&lt;/font&gt;&lt;/div&gt;" style="ellipse;whiteSpace=wrap;html=1;aspect=fixed;fontFamily=Libertine;fillColor=light-dark(#f8b6d4, #ededed);" vertex="1" parent="1">
          <mxGeometry x="259" y="210" width="20" height="20" as="geometry" />
        </mxCell>
        <mxCell id="aCUTBaR-w6iTaP7NlPZ--26" style="edgeStyle=orthogonalEdgeStyle;rounded=0;orthogonalLoop=1;jettySize=auto;html=1;exitX=1;exitY=0.5;exitDx=0;exitDy=0;endArrow=none;startFill=0;" edge="1" parent="1" source="aCUTBaR-w6iTaP7NlPZ--27" target="aCUTBaR-w6iTaP7NlPZ--29">
          <mxGeometry relative="1" as="geometry" />
        </mxCell>
        <mxCell id="aCUTBaR-w6iTaP7NlPZ--27" value="&lt;div&gt;&lt;font face=&quot;Linux Libertine O&quot;&gt;&lt;br&gt;&lt;/font&gt;&lt;/div&gt;" style="ellipse;whiteSpace=wrap;html=1;aspect=fixed;fontFamily=Libertine;fillColor=light-dark(#edefaf, #ededed);" vertex="1" parent="1">
          <mxGeometry x="530" y="210" width="20" height="20" as="geometry" />
        </mxCell>
        <mxCell id="aCUTBaR-w6iTaP7NlPZ--28" style="edgeStyle=orthogonalEdgeStyle;rounded=0;orthogonalLoop=1;jettySize=auto;html=1;exitX=1;exitY=0.5;exitDx=0;exitDy=0;entryX=0;entryY=0.5;entryDx=0;entryDy=0;endArrow=none;startFill=0;" edge="1" parent="1" source="aCUTBaR-w6iTaP7NlPZ--29" target="aCUTBaR-w6iTaP7NlPZ--30">
          <mxGeometry relative="1" as="geometry" />
        </mxCell>
        <mxCell id="aCUTBaR-w6iTaP7NlPZ--29" value="&lt;div&gt;&lt;font face=&quot;Linux Libertine O&quot;&gt;&lt;br&gt;&lt;/font&gt;&lt;/div&gt;" style="ellipse;whiteSpace=wrap;html=1;aspect=fixed;fontFamily=Libertine;fillColor=light-dark(#edefaf, #ededed);" vertex="1" parent="1">
          <mxGeometry x="590" y="210" width="20" height="20" as="geometry" />
        </mxCell>
        <mxCell id="aCUTBaR-w6iTaP7NlPZ--30" value="&lt;div&gt;&lt;font face=&quot;Linux Libertine O&quot;&gt;&lt;br&gt;&lt;/font&gt;&lt;/div&gt;" style="ellipse;whiteSpace=wrap;html=1;aspect=fixed;fontFamily=Libertine;fillColor=light-dark(#f7b7d4, #ededed);" vertex="1" parent="1">
          <mxGeometry x="630" y="210" width="20" height="20" as="geometry" />
        </mxCell>
        <mxCell id="aCUTBaR-w6iTaP7NlPZ--31" style="edgeStyle=orthogonalEdgeStyle;rounded=0;orthogonalLoop=1;jettySize=auto;html=1;exitX=1;exitY=0.5;exitDx=0;exitDy=0;entryX=0;entryY=0.5;entryDx=0;entryDy=0;endArrow=none;startFill=0;" edge="1" parent="1" source="aCUTBaR-w6iTaP7NlPZ--32" target="aCUTBaR-w6iTaP7NlPZ--27">
          <mxGeometry relative="1" as="geometry" />
        </mxCell>
        <mxCell id="aCUTBaR-w6iTaP7NlPZ--32" value="&lt;div&gt;&lt;font face=&quot;Linux Libertine O&quot;&gt;&lt;br&gt;&lt;/font&gt;&lt;/div&gt;" style="ellipse;whiteSpace=wrap;html=1;aspect=fixed;fontFamily=Libertine;fillColor=light-dark(#f8b6d4, #ededed);" vertex="1" parent="1">
          <mxGeometry x="490" y="210" width="20" height="20" as="geometry" />
        </mxCell>
        <mxCell id="aCUTBaR-w6iTaP7NlPZ--33" value="&lt;div&gt;&lt;font face=&quot;Linux Libertine O&quot;&gt;&lt;br&gt;&lt;/font&gt;&lt;/div&gt;" style="ellipse;whiteSpace=wrap;html=1;aspect=fixed;fontFamily=Libertine;fillColor=light-dark(#b5e5f8, #ededed);" vertex="1" parent="1">
          <mxGeometry x="460" y="170" width="20" height="20" as="geometry" />
        </mxCell>
        <mxCell id="aCUTBaR-w6iTaP7NlPZ--35" value="" style="endArrow=none;html=1;rounded=0;exitX=0;exitY=0;exitDx=0;exitDy=0;entryX=1;entryY=1;entryDx=0;entryDy=0;" edge="1" parent="1" source="aCUTBaR-w6iTaP7NlPZ--32" target="aCUTBaR-w6iTaP7NlPZ--33">
          <mxGeometry width="50" height="50" relative="1" as="geometry">
            <mxPoint x="390" y="280" as="sourcePoint" />
            <mxPoint x="480" y="190" as="targetPoint" />
          </mxGeometry>
        </mxCell>
        <mxCell id="aCUTBaR-w6iTaP7NlPZ--36" value="&lt;div&gt;&lt;font face=&quot;Linux Libertine O&quot;&gt;&lt;br&gt;&lt;/font&gt;&lt;/div&gt;" style="ellipse;whiteSpace=wrap;html=1;aspect=fixed;fontFamily=Libertine;fillColor=light-dark(#b5e5f8, #ededed);" vertex="1" parent="1">
          <mxGeometry x="500" y="170" width="20" height="20" as="geometry" />
        </mxCell>
        <mxCell id="aCUTBaR-w6iTaP7NlPZ--37" value="" style="endArrow=none;html=1;rounded=0;exitX=0;exitY=0;exitDx=0;exitDy=0;entryX=1;entryY=1;entryDx=0;entryDy=0;" edge="1" parent="1" source="aCUTBaR-w6iTaP7NlPZ--27" target="aCUTBaR-w6iTaP7NlPZ--36">
          <mxGeometry width="50" height="50" relative="1" as="geometry">
            <mxPoint x="503" y="223" as="sourcePoint" />
            <mxPoint x="487" y="197" as="targetPoint" />
          </mxGeometry>
        </mxCell>
        <mxCell id="aCUTBaR-w6iTaP7NlPZ--38" value="&lt;div&gt;&lt;font face=&quot;Linux Libertine O&quot;&gt;&lt;br&gt;&lt;/font&gt;&lt;/div&gt;" style="ellipse;whiteSpace=wrap;html=1;aspect=fixed;fontFamily=Libertine;fillColor=#d5e8d4;strokeColor=#000000;" vertex="1" parent="1">
          <mxGeometry x="500" y="250" width="20" height="20" as="geometry" />
        </mxCell>
        <mxCell id="aCUTBaR-w6iTaP7NlPZ--39" value="&lt;div&gt;&lt;font face=&quot;Linux Libertine O&quot;&gt;&lt;br&gt;&lt;/font&gt;&lt;/div&gt;" style="ellipse;whiteSpace=wrap;html=1;aspect=fixed;fontFamily=Libertine;fillColor=#d5e8d4;strokeColor=#000000;" vertex="1" parent="1">
          <mxGeometry x="545" y="250" width="20" height="20" as="geometry" />
        </mxCell>
        <mxCell id="aCUTBaR-w6iTaP7NlPZ--40" value="" style="endArrow=none;html=1;rounded=0;entryX=0;entryY=1;entryDx=0;entryDy=0;exitX=1;exitY=0;exitDx=0;exitDy=0;" edge="1" parent="1" source="aCUTBaR-w6iTaP7NlPZ--38" target="aCUTBaR-w6iTaP7NlPZ--27">
          <mxGeometry width="50" height="50" relative="1" as="geometry">
            <mxPoint x="480" y="340" as="sourcePoint" />
            <mxPoint x="530" y="290" as="targetPoint" />
          </mxGeometry>
        </mxCell>
        <mxCell id="aCUTBaR-w6iTaP7NlPZ--42" value="" style="endArrow=none;html=1;rounded=0;exitX=0.344;exitY=0.022;exitDx=0;exitDy=0;entryX=1;entryY=1;entryDx=0;entryDy=0;exitPerimeter=0;" edge="1" parent="1" source="aCUTBaR-w6iTaP7NlPZ--39" target="aCUTBaR-w6iTaP7NlPZ--27">
          <mxGeometry width="50" height="50" relative="1" as="geometry">
            <mxPoint x="503" y="223" as="sourcePoint" />
            <mxPoint x="487" y="197" as="targetPoint" />
          </mxGeometry>
        </mxCell>
        <mxCell id="aCUTBaR-w6iTaP7NlPZ--43" value="&lt;div&gt;&lt;font face=&quot;Linux Libertine O&quot;&gt;&lt;br&gt;&lt;/font&gt;&lt;/div&gt;" style="ellipse;whiteSpace=wrap;html=1;aspect=fixed;fontFamily=Libertine;fillColor=light-dark(#b5e5f8, #ededed);" vertex="1" parent="1">
          <mxGeometry x="620" y="170" width="20" height="20" as="geometry" />
        </mxCell>
        <mxCell id="aCUTBaR-w6iTaP7NlPZ--44" value="&lt;div&gt;&lt;font face=&quot;Linux Libertine O&quot;&gt;&lt;br&gt;&lt;/font&gt;&lt;/div&gt;" style="ellipse;whiteSpace=wrap;html=1;aspect=fixed;fontFamily=Libertine;fillColor=light-dark(#b5e5f8, #ededed);" vertex="1" parent="1">
          <mxGeometry x="660" y="170" width="20" height="20" as="geometry" />
        </mxCell>
        <mxCell id="aCUTBaR-w6iTaP7NlPZ--45" value="" style="endArrow=none;html=1;rounded=0;exitX=1;exitY=0;exitDx=0;exitDy=0;entryX=0;entryY=1;entryDx=0;entryDy=0;" edge="1" parent="1" source="aCUTBaR-w6iTaP7NlPZ--29" target="aCUTBaR-w6iTaP7NlPZ--43">
          <mxGeometry width="50" height="50" relative="1" as="geometry">
            <mxPoint x="543" y="223" as="sourcePoint" />
            <mxPoint x="527" y="197" as="targetPoint" />
          </mxGeometry>
        </mxCell>
        <mxCell id="aCUTBaR-w6iTaP7NlPZ--46" value="" style="endArrow=none;html=1;rounded=0;exitX=1;exitY=0;exitDx=0;exitDy=0;entryX=0;entryY=1;entryDx=0;entryDy=0;" edge="1" parent="1" source="aCUTBaR-w6iTaP7NlPZ--30" target="aCUTBaR-w6iTaP7NlPZ--44">
          <mxGeometry width="50" height="50" relative="1" as="geometry">
            <mxPoint x="553" y="233" as="sourcePoint" />
            <mxPoint x="537" y="207" as="targetPoint" />
          </mxGeometry>
        </mxCell>
        <mxCell id="aCUTBaR-w6iTaP7NlPZ--47" value="&lt;div&gt;&lt;font face=&quot;Linux Libertine O&quot;&gt;&lt;br&gt;&lt;/font&gt;&lt;/div&gt;" style="ellipse;whiteSpace=wrap;html=1;aspect=fixed;fontFamily=Libertine;fillColor=#d5e8d4;strokeColor=#000000;" vertex="1" parent="1">
          <mxGeometry x="578" y="250" width="20" height="20" as="geometry" />
        </mxCell>
        <mxCell id="aCUTBaR-w6iTaP7NlPZ--48" value="" style="endArrow=none;html=1;rounded=0;exitX=0.5;exitY=0;exitDx=0;exitDy=0;entryX=0;entryY=1;entryDx=0;entryDy=0;" edge="1" parent="1" source="aCUTBaR-w6iTaP7NlPZ--47" target="aCUTBaR-w6iTaP7NlPZ--29">
          <mxGeometry width="50" height="50" relative="1" as="geometry">
            <mxPoint x="567" y="260" as="sourcePoint" />
            <mxPoint x="557" y="237" as="targetPoint" />
          </mxGeometry>
        </mxCell>
        <mxCell id="aCUTBaR-w6iTaP7NlPZ--49" value="&lt;div&gt;&lt;font face=&quot;Linux Libertine O&quot;&gt;&lt;br&gt;&lt;/font&gt;&lt;/div&gt;" style="ellipse;whiteSpace=wrap;html=1;aspect=fixed;fontFamily=Libertine;fillColor=#d5e8d4;strokeColor=#000000;" vertex="1" parent="1">
          <mxGeometry x="620" y="250" width="20" height="20" as="geometry" />
        </mxCell>
        <mxCell id="aCUTBaR-w6iTaP7NlPZ--50" value="" style="endArrow=none;html=1;rounded=0;entryX=1;entryY=1;entryDx=0;entryDy=0;exitX=0;exitY=0;exitDx=0;exitDy=0;" edge="1" parent="1" source="aCUTBaR-w6iTaP7NlPZ--49" target="aCUTBaR-w6iTaP7NlPZ--29">
          <mxGeometry width="50" height="50" relative="1" as="geometry">
            <mxPoint x="527" y="263" as="sourcePoint" />
            <mxPoint x="543" y="237" as="targetPoint" />
          </mxGeometry>
        </mxCell>
        <mxCell id="aCUTBaR-w6iTaP7NlPZ--51" value="&lt;font style=&quot;font-size: 16px;&quot; face=&quot;Linux Libertine O&quot;&gt;`g=2`&lt;/font&gt;" style="text;html=1;align=center;verticalAlign=middle;resizable=0;points=[];autosize=1;strokeColor=none;fillColor=none;" vertex="1" parent="1">
          <mxGeometry x="545" y="280" width="60" height="30" as="geometry" />
        </mxCell>
        <mxCell id="aCUTBaR-w6iTaP7NlPZ--52" value="&lt;font style=&quot;font-size: 16px;&quot; face=&quot;Linux Libertine O&quot;&gt;`g=1`&lt;/font&gt;" style="text;html=1;align=center;verticalAlign=middle;resizable=0;points=[];autosize=1;strokeColor=none;fillColor=none;" vertex="1" parent="1">
          <mxGeometry x="319" y="280" width="60" height="30" as="geometry" />
        </mxCell>
        <mxCell id="aCUTBaR-w6iTaP7NlPZ--53" value="&lt;font style=&quot;font-size: 16px;&quot; face=&quot;Linux Libertine O&quot;&gt;`g=0`&lt;/font&gt;" style="text;html=1;align=center;verticalAlign=middle;resizable=0;points=[];autosize=1;strokeColor=none;fillColor=none;" vertex="1" parent="1">
          <mxGeometry x="116" y="280" width="60" height="30" as="geometry" />
        </mxCell>
      </root>
    </mxGraphModel>
  </diagram>
</mxfile>
